<mxfile host="app.diagrams.net" modified="2024-02-19T01:03:58.001Z" agent="Mozilla/5.0 (Windows NT 10.0; Win64; x64) AppleWebKit/537.36 (KHTML, like Gecko) Chrome/121.0.0.0 Safari/537.36" version="23.1.5" etag="BQ95U-JBbjcekiYEDAqC" type="github">
  <diagram name="Page-1" id="aHhP2dkoNw0n4RLFs2D8">
    <mxGraphModel>
      <root>
        <mxCell id="0" />
        <mxCell id="1" parent="0" />
        <mxCell id="2" value="1" style="ellipse;aspect=fixed;strokeWidth=2;whiteSpace=wrap;" vertex="1" parent="1">
          <mxGeometry y="112" width="23" height="23" as="geometry" />
        </mxCell>
        <mxCell id="3" value="3" style="ellipse;aspect=fixed;strokeWidth=2;whiteSpace=wrap;" vertex="1" parent="1">
          <mxGeometry x="73" y="37" width="23" height="23" as="geometry" />
        </mxCell>
        <mxCell id="4" value="6" style="ellipse;aspect=fixed;strokeWidth=2;whiteSpace=wrap;" vertex="1" parent="1">
          <mxGeometry x="73" y="186" width="23" height="23" as="geometry" />
        </mxCell>
        <mxCell id="5" value="5" style="ellipse;aspect=fixed;strokeWidth=2;whiteSpace=wrap;" vertex="1" parent="1">
          <mxGeometry x="151" width="23" height="23" as="geometry" />
        </mxCell>
        <mxCell id="6" value="9" style="ellipse;aspect=fixed;strokeWidth=2;whiteSpace=wrap;" vertex="1" parent="1">
          <mxGeometry x="151" y="73" width="23" height="23" as="geometry" />
        </mxCell>
        <mxCell id="7" value="8" style="ellipse;aspect=fixed;strokeWidth=2;whiteSpace=wrap;" vertex="1" parent="1">
          <mxGeometry x="151" y="147" width="23" height="23" as="geometry" />
        </mxCell>
        <mxCell id="8" value="10" style="ellipse;aspect=fixed;strokeWidth=2;whiteSpace=wrap;" vertex="1" parent="1">
          <mxGeometry x="147" y="220" width="32" height="32" as="geometry" />
        </mxCell>
        <mxCell id="9" value="" style="curved=1;startArrow=none;endArrow=none;exitX=0.7556494659602909;exitY=0.012941547062086023;entryX=0.017391287762185802;entryY=0.4956521573274032;" edge="1" parent="1" source="2" target="3">
          <mxGeometry relative="1" as="geometry">
            <Array as="points">
              <mxPoint x="48" y="48" />
            </Array>
          </mxGeometry>
        </mxCell>
        <mxCell id="10" value="" style="curved=1;startArrow=none;endArrow=none;exitX=0.7630434658216394;exitY=1.0303328348242717;entryX=0.017391287762185802;entryY=0.4955502178357995;" edge="1" parent="1" source="2" target="4">
          <mxGeometry relative="1" as="geometry">
            <Array as="points">
              <mxPoint x="48" y="197" />
            </Array>
          </mxGeometry>
        </mxCell>
        <mxCell id="11" value="" style="curved=1;startArrow=none;endArrow=none;exitX=1.0347825755243716;exitY=-0.013043486553689709;entryX=0.008491806361986242;entryY=0.5086956438810929;" edge="1" parent="1" source="3" target="5">
          <mxGeometry relative="1" as="geometry">
            <Array as="points">
              <mxPoint x="122" y="12" />
            </Array>
          </mxGeometry>
        </mxCell>
        <mxCell id="12" value="" style="curved=1;startArrow=none;endArrow=none;exitX=1.0347825755243716;exitY=1.004347801208496;entryX=0.008491806361986242;entryY=0.5260869316432787;" edge="1" parent="1" source="3" target="6">
          <mxGeometry relative="1" as="geometry">
            <Array as="points">
              <mxPoint x="122" y="85" />
            </Array>
          </mxGeometry>
        </mxCell>
        <mxCell id="13" value="" style="curved=1;startArrow=none;endArrow=none;exitX=1.0060420747176482;exitY=-0.013145426045293394;entryX=0.008491806361986242;entryY=0.4999999585358993;" edge="1" parent="1" source="4" target="7">
          <mxGeometry relative="1" as="geometry">
            <Array as="points">
              <mxPoint x="122" y="158" />
            </Array>
          </mxGeometry>
        </mxCell>
        <mxCell id="14" value="" style="curved=1;startArrow=none;endArrow=none;exitX=1.0060420747176482;exitY=1.0042458617168923;entryX=-0.00625002384185791;entryY=0.5092284679412842;" edge="1" parent="1" source="4" target="8">
          <mxGeometry relative="1" as="geometry">
            <Array as="points">
              <mxPoint x="122" y="236" />
            </Array>
          </mxGeometry>
        </mxCell>
      </root>
    </mxGraphModel>
  </diagram>
</mxfile>
